<svg version="1.1" id="Layer_1" xmlns="http://www.w3.org/2000/svg" xmlns:xlink="http://www.w3.org/1999/xlink" x="0px" y="0px"
	 width="100%" viewBox="0 0 512 512" enable-background="new 0 0 512 512" xml:space="preserve">
<path fill="#000000" opacity="1.000000" stroke="none" 
	d="
M1.000000,178.000000 
	C1.000000,118.666664 1.000000,59.833332 1.000000,1.000000 
	C171.666672,1.000000 342.333344,1.000000 513.000000,1.000000 
	C513.000000,171.666672 513.000000,342.333344 513.000000,513.000000 
	C342.333344,513.000000 171.666672,513.000000 1.000000,513.000000 
	C1.000000,401.500000 1.000000,290.000000 1.000000,178.000000 
M117.298172,94.307686 
	C117.422081,94.437531 117.545982,94.567368 117.232452,95.195930 
	C116.050423,96.364983 115.015633,97.750206 113.664307,98.670708 
	C92.932747,112.792458 72.157974,126.850777 51.408699,140.946564 
	C50.921379,141.277603 50.612434,141.871216 50.015339,142.588577 
	C58.281567,140.642151 65.947479,138.286530 73.790100,137.145386 
	C81.620903,136.005920 89.628654,136.082520 97.558838,135.626022 
	C97.636566,136.056107 97.714302,136.486191 97.792030,136.916275 
	C75.768990,148.317566 61.662224,167.145752 50.479778,188.278503 
	C39.384663,209.246246 33.816719,231.919403 32.792446,255.838058 
	C41.889454,238.357040 53.461227,223.188004 70.029350,212.286560 
	C54.141033,235.829269 45.796921,261.435272 44.810539,289.852661 
	C43.838696,317.851044 47.320808,344.483704 61.931477,369.185242 
	C62.646248,357.065765 62.759125,345.541931 64.156036,334.175873 
	C65.545784,322.868103 69.101288,312.041290 75.661568,302.329590 
	C74.980827,327.442139 78.875214,351.677979 89.284050,374.435883 
	C99.643005,397.084808 114.507637,416.335632 135.800400,430.259552 
	C120.380920,408.997681 112.132240,385.917389 116.386208,359.536896 
	C117.029320,361.056183 116.798752,362.744385 117.063805,364.350800 
	C121.220139,389.540955 132.319946,411.376678 149.588028,430.013977 
	C167.496597,449.342529 188.356918,464.776550 212.414413,475.681946 
	C217.264053,477.880280 222.428833,479.383423 227.448318,481.207092 
	C227.638107,480.773651 227.827896,480.340210 228.017685,479.906799 
	C216.826538,472.196045 205.985703,464.092743 197.696198,453.147888 
	C187.512436,439.702057 179.487579,423.899628 179.653854,417.760742 
	C186.931122,424.401733 193.639130,431.984039 201.719589,437.587128 
	C217.585495,448.588654 234.135239,458.617645 250.558884,468.795929 
	C260.186035,474.762146 269.367889,481.215485 274.567230,491.559631 
	C276.598877,495.601654 276.885193,500.520905 278.048645,505.384369 
	C281.265656,501.957184 282.817047,497.857239 282.992615,493.169830 
	C283.464630,480.568268 279.076874,469.384521 273.257935,458.489685 
	C268.050293,448.739471 261.210510,441.115784 250.581818,437.113586 
	C225.020981,427.488770 206.468994,410.181305 195.153610,385.318176 
	C190.360764,374.786835 187.273438,363.719055 186.125946,351.750946 
	C191.134628,361.236359 195.498184,370.570282 200.815872,379.324646 
	C209.201614,393.129883 218.821365,406.206848 232.587616,415.101166 
	C244.284424,422.658386 256.658478,429.186859 268.866394,435.928864 
	C286.313293,445.564178 299.000488,458.962708 303.394806,478.949249 
	C304.242859,482.806396 304.117157,486.877594 304.526733,491.906830 
	C310.435150,484.950684 313.180420,477.829315 313.906860,470.151886 
	C315.503296,453.279633 308.765320,439.292297 297.636414,427.188812 
	C285.360199,413.837677 270.128571,404.396576 254.887543,394.858063 
	C235.819977,382.924774 218.705338,368.616364 205.952637,349.754333 
	C188.861282,324.475159 180.204987,296.989594 182.834747,266.063477 
	C184.468323,246.852554 190.736038,229.626495 201.141464,213.702530 
	C203.498703,210.095139 206.470428,206.889282 209.159286,203.498596 
	C205.947281,213.731995 202.011627,223.399368 198.970856,233.340485 
	C193.849030,250.085114 192.838165,267.224335 194.890656,284.655609 
	C197.011276,302.665466 202.016525,319.566772 211.524399,335.129639 
	C220.093979,349.156677 230.304230,361.637756 243.684036,371.341217 
	C259.470764,382.790375 275.402863,394.043762 291.036194,405.698242 
	C303.071228,414.670197 311.333832,426.586761 315.959351,440.871826 
	C319.835907,452.843842 322.903351,465.101624 327.280426,476.879303 
	C330.167114,484.646698 335.797760,490.796600 343.461761,495.054199 
	C343.645386,494.214447 343.871765,493.819580 343.757690,493.610138 
	C333.340057,474.482971 334.271515,456.082581 346.407288,437.858032 
	C350.738373,431.353943 354.004272,424.035492 357.019653,416.782471 
	C363.140594,402.059509 365.870483,386.722473 363.104614,370.213348 
	C372.086639,375.760193 381.119751,380.228546 384.024841,390.743286 
	C388.816956,383.167786 393.329010,376.035034 397.924438,368.770477 
	C400.702118,372.247498 402.746033,374.805969 405.469574,378.215210 
	C413.411072,360.043427 426.237732,363.832520 439.171417,369.215729 
	C439.171417,361.991455 438.586761,355.321991 439.290527,348.791412 
	C440.858002,334.246155 447.823639,321.816833 455.683136,309.786713 
	C462.166687,299.862671 467.548553,289.410645 470.077271,277.647583 
	C471.541351,270.836945 473.258057,264.053375 475.381958,257.424500 
	C476.306183,254.540009 478.640167,252.131104 480.157349,249.407852 
	C483.540039,243.336166 482.741028,241.792023 477.334747,237.509827 
	C473.145691,234.191742 469.182831,230.238708 466.177765,225.844208 
	C458.715851,214.932144 451.130096,204.072098 440.873810,195.707993 
	C436.602905,192.225082 435.640900,188.783768 435.960785,183.946884 
	C436.615540,174.045990 434.745819,164.490250 430.150604,155.767578 
	C428.499420,152.633224 425.007263,150.413086 422.188080,147.968552 
	C420.199249,146.244034 417.737915,145.048492 415.823273,143.257782 
	C411.769531,139.466553 408.184814,135.142761 403.944427,131.590469 
	C399.258545,127.664978 394.054535,124.358055 389.063934,120.772919 
	C403.078857,104.721191 409.884125,80.857300 403.570557,69.552795 
	C400.699432,76.423271 397.453430,82.827850 389.118073,84.917770 
	C386.750305,60.524513 371.570404,46.719856 349.698853,36.525711 
	C357.080078,45.717392 362.624878,54.239208 363.624054,65.012604 
	C350.434296,45.414791 332.645599,31.475092 311.391998,21.778086 
	C290.190643,12.104899 267.657959,9.006351 244.472626,8.634941 
	C257.737183,12.653968 270.051300,18.301191 281.164307,27.861404 
	C241.004089,15.903389 203.031219,23.284195 165.424423,36.893532 
	C177.640900,38.592060 189.526932,41.195194 201.962128,46.599781 
	C200.084579,46.856762 199.589630,47.005516 199.104111,46.979328 
	C176.475067,45.758724 156.352493,53.154629 137.441071,64.813866 
	C128.517883,70.315170 119.537033,75.723839 110.545944,81.113808 
	C101.722275,86.403412 91.884628,88.418129 80.777260,89.486237 
	C85.821709,93.722893 90.926292,94.875801 96.122375,94.900970 
	C103.055466,94.934555 109.991905,94.277908 117.298172,94.307686 
z"/>
<path fill="#13C508" opacity="1.000000" stroke="none" 
	d="
M116.926903,93.917725 
	C109.991905,94.277908 103.055466,94.934555 96.122375,94.900970 
	C90.926292,94.875801 85.821709,93.722893 80.777260,89.486237 
	C91.884628,88.418129 101.722275,86.403412 110.545944,81.113808 
	C119.537033,75.723839 128.517883,70.315170 137.441071,64.813866 
	C156.352493,53.154629 176.475067,45.758724 199.104111,46.979328 
	C199.589630,47.005516 200.084579,46.856762 201.962128,46.599781 
	C189.526932,41.195194 177.640900,38.592060 165.424423,36.893532 
	C203.031219,23.284195 241.004089,15.903389 281.164307,27.861404 
	C270.051300,18.301191 257.737183,12.653968 244.472626,8.634941 
	C267.657959,9.006351 290.190643,12.104899 311.391998,21.778086 
	C332.645599,31.475092 350.434296,45.414791 363.624054,65.012604 
	C362.624878,54.239208 357.080078,45.717392 349.698853,36.525711 
	C371.570404,46.719856 386.750305,60.524513 389.118073,84.917770 
	C397.453430,82.827850 400.699432,76.423271 403.570557,69.552795 
	C409.884125,80.857300 403.078857,104.721191 389.063934,120.772919 
	C394.054535,124.358055 399.258545,127.664978 403.944427,131.590469 
	C408.184814,135.142761 411.769531,139.466553 415.823273,143.257782 
	C417.737915,145.048492 420.199249,146.244034 422.188080,147.968552 
	C425.007263,150.413086 428.499420,152.633224 430.150604,155.767578 
	C434.745819,164.490250 436.615540,174.045990 435.960785,183.946884 
	C435.640900,188.783768 436.602905,192.225082 440.873810,195.707993 
	C451.130096,204.072098 458.715851,214.932144 466.177765,225.844208 
	C469.182831,230.238708 473.145691,234.191742 477.334747,237.509827 
	C482.741028,241.792023 483.540039,243.336166 480.157349,249.407852 
	C478.640167,252.131104 476.306183,254.540009 475.381958,257.424500 
	C473.258057,264.053375 471.541351,270.836945 470.077271,277.647583 
	C467.548553,289.410645 462.166687,299.862671 455.683136,309.786713 
	C447.823639,321.816833 440.858002,334.246155 439.290527,348.791412 
	C438.586761,355.321991 439.171417,361.991455 439.171417,369.215729 
	C426.237732,363.832520 413.411072,360.043427 405.469574,378.215210 
	C402.746033,374.805969 400.702118,372.247498 397.924438,368.770477 
	C393.329010,376.035034 388.816956,383.167786 384.024841,390.743286 
	C381.119751,380.228546 372.086639,375.760193 363.104614,370.213348 
	C365.870483,386.722473 363.140594,402.059509 357.019653,416.782471 
	C354.004272,424.035492 350.738373,431.353943 346.407288,437.858032 
	C334.271515,456.082581 333.340057,474.482971 343.757690,493.610138 
	C343.871765,493.819580 343.645386,494.214447 343.461761,495.054199 
	C335.797760,490.796600 330.167114,484.646698 327.280426,476.879303 
	C322.903351,465.101624 319.835907,452.843842 315.959351,440.871826 
	C311.333832,426.586761 303.071228,414.670197 291.036194,405.698242 
	C275.402863,394.043762 259.470764,382.790375 243.684036,371.341217 
	C230.304230,361.637756 220.093979,349.156677 211.524399,335.129639 
	C202.016525,319.566772 197.011276,302.665466 194.890656,284.655609 
	C192.838165,267.224335 193.849030,250.085114 198.970856,233.340485 
	C202.011627,223.399368 205.947281,213.731995 209.159286,203.498596 
	C206.470428,206.889282 203.498703,210.095139 201.141464,213.702530 
	C190.736038,229.626495 184.468323,246.852554 182.834747,266.063477 
	C180.204987,296.989594 188.861282,324.475159 205.952637,349.754333 
	C218.705338,368.616364 235.819977,382.924774 254.887543,394.858063 
	C270.128571,404.396576 285.360199,413.837677 297.636414,427.188812 
	C308.765320,439.292297 315.503296,453.279633 313.906860,470.151886 
	C313.180420,477.829315 310.435150,484.950684 304.526733,491.906830 
	C304.117157,486.877594 304.242859,482.806396 303.394806,478.949249 
	C299.000488,458.962708 286.313293,445.564178 268.866394,435.928864 
	C256.658478,429.186859 244.284424,422.658386 232.587616,415.101166 
	C218.821365,406.206848 209.201614,393.129883 200.815872,379.324646 
	C195.498184,370.570282 191.134628,361.236359 186.125946,351.750946 
	C187.273438,363.719055 190.360764,374.786835 195.153610,385.318176 
	C206.468994,410.181305 225.020981,427.488770 250.581818,437.113586 
	C261.210510,441.115784 268.050293,448.739471 273.257935,458.489685 
	C279.076874,469.384521 283.464630,480.568268 282.992615,493.169830 
	C282.817047,497.857239 281.265656,501.957184 278.048645,505.384369 
	C276.885193,500.520905 276.598877,495.601654 274.567230,491.559631 
	C269.367889,481.215485 260.186035,474.762146 250.558884,468.795929 
	C234.135239,458.617645 217.585495,448.588654 201.719589,437.587128 
	C193.639130,431.984039 186.931122,424.401733 179.653854,417.760742 
	C179.487579,423.899628 187.512436,439.702057 197.696198,453.147888 
	C205.985703,464.092743 216.826538,472.196045 228.017685,479.906799 
	C227.827896,480.340210 227.638107,480.773651 227.448318,481.207092 
	C222.428833,479.383423 217.264053,477.880280 212.414413,475.681946 
	C188.356918,464.776550 167.496597,449.342529 149.588028,430.013977 
	C132.319946,411.376678 121.220139,389.540955 117.063805,364.350800 
	C116.798752,362.744385 117.029320,361.056183 116.386208,359.536896 
	C112.132240,385.917389 120.380920,408.997681 135.800400,430.259552 
	C114.507637,416.335632 99.643005,397.084808 89.284050,374.435883 
	C78.875214,351.677979 74.980827,327.442139 75.661568,302.329590 
	C69.101288,312.041290 65.545784,322.868103 64.156036,334.175873 
	C62.759125,345.541931 62.646248,357.065765 61.931477,369.185242 
	C47.320808,344.483704 43.838696,317.851044 44.810539,289.852661 
	C45.796921,261.435272 54.141033,235.829269 70.029350,212.286560 
	C53.461227,223.188004 41.889454,238.357040 32.792446,255.838058 
	C33.816719,231.919403 39.384663,209.246246 50.479778,188.278503 
	C61.662224,167.145752 75.768990,148.317566 97.792030,136.916275 
	C97.714302,136.486191 97.636566,136.056107 97.558838,135.626022 
	C89.628654,136.082520 81.620903,136.005920 73.790100,137.145386 
	C65.947479,138.286530 58.281567,140.642151 50.015339,142.588577 
	C50.612434,141.871216 50.921379,141.277603 51.408699,140.946564 
	C72.157974,126.850777 92.932747,112.792458 113.664307,98.670708 
	C115.015633,97.750206 116.050423,96.364983 117.654984,94.765244 
	C118.181541,93.974236 118.285568,93.613914 118.389587,93.253593 
	C117.902023,93.474968 117.414459,93.696342 116.926903,93.917725 
M159.224457,162.012970 
	C135.549973,176.398315 124.590393,199.574753 130.939911,225.364853 
	C135.022430,200.632141 143.002853,179.272919 161.075272,162.335983 
	C161.178879,161.978256 161.282471,161.620529 161.386078,161.262787 
	C160.899643,161.481049 160.413223,161.699310 159.224457,162.012970 
M151.792007,87.986458 
	C189.422272,67.096680 225.608093,75.107887 261.350220,93.787994 
	C260.490784,92.185097 259.619476,90.950821 258.494507,90.024666 
	C241.020416,75.638718 221.290253,66.663414 198.400421,66.063416 
	C179.155365,65.558960 162.767273,72.096710 149.926498,87.665131 
	C149.819656,88.028893 149.712814,88.392647 149.605957,88.756409 
	C150.094925,88.531616 150.583878,88.306824 151.792007,87.986458 
M155.815338,232.781189 
	C155.529495,233.359375 155.334702,234.009109 154.944687,234.505432 
	C138.686127,255.195892 131.210815,278.531494 132.907227,304.934357 
	C133.789902,318.672516 137.705582,331.396454 144.235336,343.268677 
	C147.701080,349.570007 152.457092,355.161713 156.630661,361.073730 
	C157.178116,360.724213 157.725571,360.374695 158.273010,360.025177 
	C157.596130,358.601868 156.848541,357.207367 156.254669,355.750214 
	C153.802689,349.733765 150.553452,343.885834 149.162964,337.628052 
	C146.790970,326.953033 144.815125,316.065735 144.126953,305.175720 
	C143.437775,294.269501 144.107346,283.218506 144.944992,272.289490 
	C146.011169,258.379120 151.739929,245.743088 157.575317,232.819962 
	C157.623886,232.398743 157.672440,231.977524 157.721008,231.556320 
	C157.253311,231.809509 156.785614,232.062698 155.815338,232.781189 
M398.999786,169.365387 
	C398.999786,171.190598 398.999786,173.015823 398.999786,175.884674 
	C389.350281,166.040604 389.350281,166.040604 376.374542,164.607605 
	C374.813324,155.277405 368.663269,148.438583 362.377014,142.131516 
	C353.826904,133.553146 344.683685,125.481895 335.196350,117.946701 
	C326.696899,111.196129 313.899658,110.647659 305.445953,117.959267 
	C304.652710,118.645325 303.468018,118.878769 301.867859,119.586494 
	C301.867859,114.466530 301.867859,109.922752 301.867859,104.070015 
	C289.811493,121.958557 273.975098,133.016479 254.623169,140.844864 
	C261.277283,143.219925 267.143036,145.313568 273.524811,147.591431 
	C257.156891,159.876862 242.526215,172.390625 239.273453,193.621323 
	C244.272217,190.832962 249.043060,188.171738 254.083206,185.360291 
	C258.959991,197.207565 259.592957,208.524597 255.537598,219.757233 
	C250.584549,233.476318 244.694550,246.861008 239.879410,260.624603 
	C236.956482,268.979523 235.383575,277.784546 237.041901,286.805054 
	C240.045441,279.878906 242.477234,272.906891 245.996536,266.535522 
	C249.589203,260.031342 254.249863,254.117096 258.442963,247.944580 
	C258.816956,248.208115 259.190918,248.471634 259.564880,248.735168 
	C248.622620,298.927856 271.640686,345.348816 301.798370,366.148773 
	C299.418213,360.502075 297.476532,355.895569 295.102478,350.263306 
	C315.792297,360.438904 327.145508,375.839722 329.452789,397.903564 
	C329.993622,391.623505 330.732513,385.492493 329.834503,379.611389 
	C328.146271,368.555328 322.311310,359.424622 313.953094,352.112640 
	C304.081024,343.476318 292.732147,336.721222 284.372711,326.120911 
	C271.059784,309.239227 265.389832,290.616394 269.207947,269.502075 
	C270.279785,263.574677 273.286285,257.997101 275.405365,252.259094 
	C275.942017,252.463394 276.478638,252.667694 277.015289,252.871994 
	C276.142883,255.978836 274.870331,259.037567 274.489624,262.203552 
	C273.881683,267.259094 272.615387,272.265717 276.902191,276.991669 
	C280.580750,281.047058 283.381012,286.049194 285.891754,290.978027 
	C289.480743,298.023499 292.451660,305.383820 295.686523,312.609711 
	C296.064545,312.597809 296.442566,312.585938 296.820587,312.574036 
	C296.820587,302.317169 296.820587,292.060272 296.820587,281.803406 
	C307.193359,293.478485 311.606445,309.323120 327.047058,315.593170 
	C323.426544,309.216095 319.182983,303.026978 316.277954,296.262970 
	C313.376801,289.507843 311.815765,282.177155 309.331604,273.993103 
	C310.984283,274.817322 311.210846,274.852753 311.267426,274.970123 
	C312.181458,276.865540 313.139618,278.743500 313.961273,280.679108 
	C323.595886,303.376251 340.986664,315.641144 365.249786,317.906677 
	C384.401672,319.694946 401.693634,313.124695 418.803375,305.249207 
	C429.249329,300.441040 428.950043,290.535980 432.206238,282.191986 
	C432.435150,281.605377 431.754456,280.496002 431.247009,279.816101 
	C426.693420,273.714600 421.997925,268.078705 414.034180,265.810028 
	C402.918427,262.643372 395.016510,255.841415 393.354614,243.635239 
	C393.017700,241.160690 393.305878,238.601028 393.305878,236.080612 
	C395.541840,238.050079 396.426392,239.986679 397.416138,241.867905 
	C401.317505,249.283127 408.120758,251.415894 415.573700,247.874603 
	C417.711884,246.858643 420.285431,245.904617 422.531372,246.140610 
	C427.874176,246.701920 433.252411,247.598877 438.413452,249.071350 
	C448.014801,251.810715 458.887787,250.190292 467.146393,244.290863 
	C464.419891,240.592819 461.687256,236.901764 458.971069,233.198639 
	C455.590088,228.589249 452.614868,223.609467 448.771027,219.426910 
	C439.677124,209.531525 430.041046,200.135971 420.881409,190.298843 
	C414.752258,183.716370 411.090729,175.828064 409.872070,165.963547 
	C415.631897,169.687119 420.674164,172.946823 426.981934,177.024643 
	C424.427704,169.703064 422.266479,163.507965 419.862305,156.616531 
	C418.339142,158.492096 417.446686,159.590988 416.832428,160.347351 
	C410.831696,153.823303 405.684662,146.465561 398.902527,141.223145 
	C385.081879,130.540146 381.015137,129.105209 376.514893,129.295380 
	C378.290894,132.083176 380.145905,134.958725 381.964569,137.857056 
	C386.209686,144.622406 390.017639,151.719101 394.843475,158.039627 
	C397.375244,161.355591 399.737854,164.133224 398.999786,169.365387 
M373.003510,362.454224 
	C373.877533,362.801880 374.751556,363.149536 375.417145,363.414276 
	C376.628937,359.892548 377.775665,356.559906 378.922363,353.227295 
	C379.350128,353.163879 379.777893,353.100464 380.205658,353.037048 
	C381.996613,356.529541 383.787567,360.022064 385.502472,363.366272 
	C389.611908,360.098358 393.923645,357.244293 397.512329,353.665253 
	C401.672638,349.516174 403.941376,351.288666 406.150543,355.354645 
	C406.439789,355.887054 406.995422,356.274689 407.699249,357.015106 
	C413.510620,348.617523 420.730286,349.318024 428.882324,354.517975 
	C428.866882,342.209717 430.758118,331.202301 436.803802,321.471252 
	C430.391266,315.709015 426.531464,314.653839 419.340515,317.378479 
	C407.719757,321.781677 396.086212,326.199463 384.712006,331.189789 
	C375.635895,335.171875 366.535065,337.463226 356.622253,335.261078 
	C356.840546,336.155182 356.804016,337.202454 357.185272,337.387085 
	C362.595734,340.007385 364.677704,344.028381 362.994171,349.954956 
	C362.773804,350.730682 363.313171,352.000336 363.910370,352.682587 
	C366.682892,355.849976 369.599731,358.890961 373.003510,362.454224 
M106.525101,191.955368 
	C108.757919,187.310226 110.990738,182.665070 113.223549,178.019928 
	C92.975586,199.291092 82.738861,223.978607 85.824242,253.732239 
	C87.031342,265.372711 95.271927,290.619781 100.989357,294.625854 
	C100.989357,293.685638 101.078293,292.848114 100.976059,292.034607 
	C99.338333,279.001892 97.062485,266.014587 96.160294,252.932220 
	C94.726578,232.142426 97.039970,211.763184 106.525101,191.955368 
M183.021881,123.982361 
	C181.112350,103.375900 193.476395,93.521324 212.513977,88.418785 
	C193.670258,86.259285 176.965683,96.810875 176.231995,117.705399 
	C175.803070,129.920715 180.300797,141.548309 187.950912,151.051056 
	C193.260071,157.645905 198.245728,163.854507 198.209244,173.443405 
	C203.653870,165.239716 203.235916,158.299591 196.834961,149.456863 
	C191.282074,141.785690 185.189331,134.474762 183.021881,123.982361 
M266.555511,42.885403 
	C286.671387,52.900871 302.793884,67.317970 314.685883,87.421852 
	C312.474701,60.207188 276.206879,31.960505 250.317535,36.594963 
	C255.620743,38.589527 260.767334,40.525185 266.555511,42.885403 
M444.914032,284.493988 
	C442.598938,290.232849 440.497589,296.071564 437.882996,301.670563 
	C436.473419,304.689117 438.120056,306.399628 440.049713,307.191956 
	C441.251953,307.685608 444.136017,306.644806 444.805695,305.464508 
	C449.693176,296.850494 454.477722,288.152252 458.694519,279.197906 
	C460.100891,276.211487 459.754425,272.399597 460.209290,268.965088 
	C459.760437,268.798157 459.311615,268.631226 458.862793,268.464294 
	C454.270172,273.567261 449.677582,278.670227 444.914032,284.493988 
M345.532715,85.083534 
	C347.032745,88.877785 348.532745,92.672043 349.804413,95.888649 
	C353.083130,90.179901 353.125580,77.649582 349.390442,70.197769 
	C347.812836,72.367401 346.235229,74.537033 344.545410,76.861023 
	C336.930176,61.177361 327.558105,49.467880 321.813324,48.748245 
	C330.878479,60.141827 336.500000,72.892761 339.707977,87.350922 
	C341.520844,86.551865 343.131439,85.841980 345.532715,85.083534 
M210.339844,117.312431 
	C209.470718,125.067169 209.856827,127.189682 212.687210,130.216339 
	C213.761398,122.006874 217.879333,117.039360 224.633911,117.135681 
	C230.484467,117.219131 236.410706,117.991661 242.127319,119.256111 
	C245.634598,120.031876 247.834351,119.392349 250.078293,116.825157 
	C247.892838,115.784149 246.167435,114.827957 244.345734,114.119293 
	C238.472031,111.834366 232.645401,109.379311 226.644608,107.483757 
	C220.398926,105.510841 212.824814,110.154297 210.339844,117.312431 
M245.916336,126.389496 
	C246.238907,125.480644 246.561493,124.571793 246.913376,123.580353 
	C225.948517,126.210739 214.056808,138.090210 218.068619,150.307968 
	C221.307785,147.787338 224.677231,144.511017 228.624741,142.239105 
	C235.405762,138.336426 242.104034,134.563614 245.916336,126.389496 
M114.729843,176.035843 
	C114.319023,176.219757 113.908195,176.403671 113.497368,176.587555 
	C113.873558,176.610611 114.249756,176.633667 114.729843,176.035843 
M210.716309,202.057968 
	C210.722397,202.295181 210.728500,202.532394 210.734589,202.769608 
	C211.005539,202.742142 211.276489,202.714661 211.547440,202.687180 
	C211.436844,202.351303 211.326263,202.015411 210.716309,202.057968 
M71.710869,211.062042 
	C71.300346,211.243332 70.889832,211.424606 70.479309,211.605896 
	C70.854378,211.630341 71.229454,211.654770 71.710869,211.062042 
M262.076019,95.173599 
	C262.409851,95.265572 262.743683,95.357536 263.077515,95.449509 
	C262.803101,95.167801 262.528656,94.886093 262.076019,95.173599 
M158.467850,361.313080 
	C158.857056,361.538727 159.246277,361.764374 159.635498,361.990021 
	C159.440140,361.674713 159.244766,361.359375 158.467850,361.313080 
z"/>
<path fill="#000000" opacity="1.000000" stroke="none" 
	d="
M398.999817,168.926086 
	C399.737854,164.133224 397.375244,161.355591 394.843475,158.039627 
	C390.017639,151.719101 386.209686,144.622406 381.964569,137.857056 
	C380.145905,134.958725 378.290894,132.083176 376.514893,129.295380 
	C381.015137,129.105209 385.081879,130.540146 398.902527,141.223145 
	C405.684662,146.465561 410.831696,153.823303 416.832428,160.347351 
	C417.446686,159.590988 418.339142,158.492096 419.862305,156.616531 
	C422.266479,163.507965 424.427704,169.703064 426.981934,177.024643 
	C420.674164,172.946823 415.631897,169.687119 409.872070,165.963547 
	C411.090729,175.828064 414.752258,183.716370 420.881409,190.298843 
	C430.041046,200.135971 439.677124,209.531525 448.771027,219.426910 
	C452.614868,223.609467 455.590088,228.589249 458.971069,233.198639 
	C461.687256,236.901764 464.419891,240.592819 467.146393,244.290863 
	C458.887787,250.190292 448.014801,251.810715 438.413452,249.071350 
	C433.252411,247.598877 427.874176,246.701920 422.531372,246.140610 
	C420.285431,245.904617 417.711884,246.858643 415.573700,247.874603 
	C408.120758,251.415894 401.317505,249.283127 397.416138,241.867905 
	C396.426392,239.986679 395.541840,238.050079 393.305878,236.080612 
	C393.305878,238.601028 393.017700,241.160690 393.354614,243.635239 
	C395.016510,255.841415 402.918427,262.643372 414.034180,265.810028 
	C421.997925,268.078705 426.693420,273.714600 431.247009,279.816101 
	C431.754456,280.496002 432.435150,281.605377 432.206238,282.191986 
	C428.950043,290.535980 429.249329,300.441040 418.803375,305.249207 
	C401.693634,313.124695 384.401672,319.694946 365.249786,317.906677 
	C340.986664,315.641144 323.595886,303.376251 313.961273,280.679108 
	C313.139618,278.743500 312.181458,276.865540 311.267426,274.970123 
	C311.210846,274.852753 310.984283,274.817322 309.331604,273.993103 
	C311.815765,282.177155 313.376801,289.507843 316.277954,296.262970 
	C319.182983,303.026978 323.426544,309.216095 327.047058,315.593170 
	C311.606445,309.323120 307.193359,293.478485 296.820587,281.803406 
	C296.820587,292.060272 296.820587,302.317169 296.820587,312.574036 
	C296.442566,312.585938 296.064545,312.597809 295.686523,312.609711 
	C292.451660,305.383820 289.480743,298.023499 285.891754,290.978027 
	C283.381012,286.049194 280.580750,281.047058 276.902191,276.991669 
	C272.615387,272.265717 273.881683,267.259094 274.489624,262.203552 
	C274.870331,259.037567 276.142883,255.978836 277.015289,252.871994 
	C276.478638,252.667694 275.942017,252.463394 275.405365,252.259094 
	C273.286285,257.997101 270.279785,263.574677 269.207947,269.502075 
	C265.389832,290.616394 271.059784,309.239227 284.372711,326.120911 
	C292.732147,336.721222 304.081024,343.476318 313.953094,352.112640 
	C322.311310,359.424622 328.146271,368.555328 329.834503,379.611389 
	C330.732513,385.492493 329.993622,391.623505 329.452789,397.903564 
	C327.145508,375.839722 315.792297,360.438904 295.102478,350.263306 
	C297.476532,355.895569 299.418213,360.502075 301.798370,366.148773 
	C271.640686,345.348816 248.622620,298.927856 259.564880,248.735168 
	C259.190918,248.471634 258.816956,248.208115 258.442963,247.944580 
	C254.249863,254.117096 249.589203,260.031342 245.996536,266.535522 
	C242.477234,272.906891 240.045441,279.878906 237.041901,286.805054 
	C235.383575,277.784546 236.956482,268.979523 239.879410,260.624603 
	C244.694550,246.861008 250.584549,233.476318 255.537598,219.757233 
	C259.592957,208.524597 258.959991,197.207565 254.083206,185.360291 
	C249.043060,188.171738 244.272217,190.832962 239.273453,193.621323 
	C242.526215,172.390625 257.156891,159.876862 273.524811,147.591431 
	C267.143036,145.313568 261.277283,143.219925 254.623169,140.844864 
	C273.975098,133.016479 289.811493,121.958557 301.867859,104.070015 
	C301.867859,109.922752 301.867859,114.466530 301.867859,119.586494 
	C303.468018,118.878769 304.652710,118.645325 305.445953,117.959267 
	C313.899658,110.647659 326.696899,111.196129 335.196350,117.946701 
	C344.683685,125.481895 353.826904,133.553146 362.377014,142.131516 
	C368.663269,148.438583 374.813324,155.277405 376.374542,164.607605 
	C389.350281,166.040604 389.350281,166.040604 398.999786,175.884674 
	C398.999786,173.015823 398.999786,171.190598 398.999817,168.926086 
M353.592499,214.134979 
	C356.905212,222.728897 358.791748,231.431259 354.052612,241.564087 
	C368.054810,232.105011 370.163788,213.000732 363.386902,201.945480 
	C360.486237,197.213516 356.268799,193.202988 353.855194,188.274277 
	C346.546997,173.350632 331.883667,173.113724 319.466339,177.175339 
	C316.420410,178.171616 313.350586,179.094543 310.296692,180.066681 
	C307.147125,181.069305 304.003571,182.090790 300.891937,183.092896 
	C306.805908,186.132309 312.362213,188.005234 316.685547,191.433182 
	C323.700287,196.995117 331.167725,201.220932 340.044403,201.727478 
	C344.328247,201.971924 346.853455,203.933975 349.122559,206.759506 
	C350.745209,208.780014 351.813324,211.245834 353.592499,214.134979 
z"/>
<path fill="#000000" opacity="1.000000" stroke="none" 
	d="
M372.734222,362.215698 
	C369.599731,358.890961 366.682892,355.849976 363.910370,352.682587 
	C363.313171,352.000336 362.773804,350.730682 362.994171,349.954956 
	C364.677704,344.028381 362.595734,340.007385 357.185272,337.387085 
	C356.804016,337.202454 356.840546,336.155182 356.622253,335.261078 
	C366.535065,337.463226 375.635895,335.171875 384.712006,331.189789 
	C396.086212,326.199463 407.719757,321.781677 419.340515,317.378479 
	C426.531464,314.653839 430.391266,315.709015 436.803802,321.471252 
	C430.758118,331.202301 428.866882,342.209717 428.882324,354.517975 
	C420.730286,349.318024 413.510620,348.617523 407.699249,357.015106 
	C406.995422,356.274689 406.439789,355.887054 406.150543,355.354645 
	C403.941376,351.288666 401.672638,349.516174 397.512329,353.665253 
	C393.923645,357.244293 389.611908,360.098358 385.502472,363.366272 
	C383.787567,360.022064 381.996613,356.529541 380.205658,353.037048 
	C379.777893,353.100464 379.350128,353.163879 378.922363,353.227295 
	C377.775665,356.559906 376.628937,359.892548 375.417145,363.414276 
	C374.751556,363.149536 373.877533,362.801880 372.734222,362.215698 
z"/>
<path fill="#000000" opacity="1.000000" stroke="none" 
	d="
M157.078339,233.063171 
	C151.739929,245.743088 146.011169,258.379120 144.944992,272.289490 
	C144.107346,283.218506 143.437775,294.269501 144.126953,305.175720 
	C144.815125,316.065735 146.790970,326.953033 149.162964,337.628052 
	C150.553452,343.885834 153.802689,349.733765 156.254669,355.750214 
	C156.848541,357.207367 157.596130,358.601868 158.273010,360.025177 
	C157.725571,360.374695 157.178116,360.724213 156.630661,361.073730 
	C152.457092,355.161713 147.701080,349.570007 144.235336,343.268677 
	C137.705582,331.396454 133.789902,318.672516 132.907227,304.934357 
	C131.210815,278.531494 138.686127,255.195892 154.944687,234.505432 
	C155.334702,234.009109 155.529495,233.359375 156.256592,232.735504 
	C156.824677,232.814255 156.951508,232.938705 157.078339,233.063171 
z"/>
<path fill="#000000" opacity="1.000000" stroke="none" 
	d="
M106.313194,192.278961 
	C97.039970,211.763184 94.726578,232.142426 96.160294,252.932220 
	C97.062485,266.014587 99.338333,279.001892 100.976059,292.034607 
	C101.078293,292.848114 100.989357,293.685638 100.989357,294.625854 
	C95.271927,290.619781 87.031342,265.372711 85.824242,253.732239 
	C82.738861,223.978607 92.975586,199.291092 113.223549,178.019928 
	C110.990738,182.665070 108.757919,187.310226 106.313194,192.278961 
z"/>
<path fill="#000000" opacity="1.000000" stroke="none" 
	d="
M150.341370,87.306534 
	C162.767273,72.096710 179.155365,65.558960 198.400421,66.063416 
	C221.290253,66.663414 241.020416,75.638718 258.494507,90.024666 
	C259.619476,90.950821 260.490784,92.185097 261.350220,93.787994 
	C225.608093,75.107887 189.422272,67.096680 151.249756,87.840164 
	C150.585464,87.564766 150.463425,87.435646 150.341370,87.306534 
z"/>
<path fill="#000000" opacity="1.000000" stroke="none" 
	d="
M183.140732,124.407097 
	C185.189331,134.474762 191.282074,141.785690 196.834961,149.456863 
	C203.235916,158.299591 203.653870,165.239716 198.209244,173.443405 
	C198.245728,163.854507 193.260071,157.645905 187.950912,151.051056 
	C180.300797,141.548309 175.803070,129.920715 176.231995,117.705399 
	C176.965683,96.810875 193.670258,86.259285 212.513977,88.418785 
	C193.476395,93.521324 181.112350,103.375900 183.140732,124.407097 
z"/>
<path fill="#000000" opacity="1.000000" stroke="none" 
	d="
M266.234741,42.673126 
	C260.767334,40.525185 255.620743,38.589527 250.317535,36.594963 
	C276.206879,31.960505 312.474701,60.207188 314.685883,87.421852 
	C302.793884,67.317970 286.671387,52.900871 266.234741,42.673126 
z"/>
<path fill="#000000" opacity="1.000000" stroke="none" 
	d="
M444.999512,284.133606 
	C449.677582,278.670227 454.270172,273.567261 458.862793,268.464294 
	C459.311615,268.631226 459.760437,268.798157 460.209290,268.965088 
	C459.754425,272.399597 460.100891,276.211487 458.694519,279.197906 
	C454.477722,288.152252 449.693176,296.850494 444.805695,305.464508 
	C444.136017,306.644806 441.251953,307.685608 440.049713,307.191956 
	C438.120056,306.399628 436.473419,304.689117 437.882996,301.670563 
	C440.497589,296.071564 442.598938,290.232849 444.999512,284.133606 
z"/>
<path fill="#000000" opacity="1.000000" stroke="none" 
	d="
M160.669250,162.697296 
	C143.002853,179.272919 135.022430,200.632141 130.939911,225.364853 
	C124.590393,199.574753 135.549973,176.398315 159.761139,162.160309 
	C160.421616,162.437531 160.545425,162.567413 160.669250,162.697296 
z"/>
<path fill="#000000" opacity="1.000000" stroke="none" 
	d="
M345.137360,85.107811 
	C343.131439,85.841980 341.520844,86.551865 339.707977,87.350922 
	C336.500000,72.892761 330.878479,60.141827 321.813324,48.748245 
	C327.558105,49.467880 336.930176,61.177361 344.545410,76.861023 
	C346.235229,74.537033 347.812836,72.367401 349.394043,70.202072 
	C353.125580,77.649582 353.083130,90.179901 349.804413,95.888649 
	C348.532745,92.672043 347.032745,88.877785 345.137360,85.107811 
z"/>
<path fill="#000000" opacity="1.000000" stroke="none" 
	d="
M210.604584,116.991364 
	C212.824814,110.154297 220.398926,105.510841 226.644608,107.483757 
	C232.645401,109.379311 238.472031,111.834366 244.345734,114.119293 
	C246.167435,114.827957 247.892838,115.784149 250.078293,116.825157 
	C247.834351,119.392349 245.634598,120.031876 242.127319,119.256111 
	C236.410706,117.991661 230.484467,117.219131 224.633911,117.135681 
	C217.879333,117.039360 213.761398,122.006874 212.687210,130.216339 
	C209.856827,127.189682 209.470718,125.067169 210.604584,116.991364 
z"/>
<path fill="#000000" opacity="1.000000" stroke="none" 
	d="
M245.715454,126.701477 
	C242.104034,134.563614 235.405762,138.336426 228.624741,142.239105 
	C224.677231,144.511017 221.307785,147.787338 218.068619,150.307968 
	C214.056808,138.090210 225.948517,126.210739 246.913376,123.580353 
	C246.561493,124.571793 246.238907,125.480644 245.715454,126.701477 
z"/>
<path fill="#000000" opacity="1.000000" stroke="none" 
	d="
M160.112305,162.112610 
	C160.413223,161.699310 160.899643,161.481049 161.386078,161.262787 
	C161.282471,161.620529 161.178879,161.978256 160.872253,162.516632 
	C160.545425,162.567413 160.421616,162.437531 160.112305,162.112610 
z"/>
<path fill="#000000" opacity="1.000000" stroke="none" 
	d="
M114.677895,176.346283 
	C114.249756,176.633667 113.873558,176.610611 113.497368,176.587555 
	C113.908195,176.403671 114.319023,176.219757 114.677895,176.346283 
z"/>
<path fill="#000000" opacity="1.000000" stroke="none" 
	d="
M210.966003,201.868744 
	C211.326263,202.015411 211.436844,202.351303 211.547440,202.687180 
	C211.276489,202.714661 211.005539,202.742142 210.734589,202.769608 
	C210.728500,202.532394 210.722397,202.295181 210.966003,201.868744 
z"/>
<path fill="#000000" opacity="1.000000" stroke="none" 
	d="
M71.657700,211.370636 
	C71.229454,211.654770 70.854378,211.630341 70.479309,211.605896 
	C70.889832,211.424606 71.300346,211.243332 71.657700,211.370636 
z"/>
<path fill="#000000" opacity="1.000000" stroke="none" 
	d="
M156.507874,232.502838 
	C156.785614,232.062698 157.253311,231.809509 157.721008,231.556305 
	C157.672440,231.977524 157.623886,232.398743 157.326828,232.941559 
	C156.951508,232.938705 156.824677,232.814255 156.507874,232.502838 
z"/>
<path fill="#000000" opacity="1.000000" stroke="none" 
	d="
M262.165131,94.888992 
	C262.528656,94.886093 262.803101,95.167801 263.077515,95.449509 
	C262.743683,95.357536 262.409851,95.265572 262.165131,94.888992 
z"/>
<path fill="#000000" opacity="1.000000" stroke="none" 
	d="
M117.112534,94.112701 
	C117.414459,93.696342 117.902023,93.474968 118.389587,93.253593 
	C118.285568,93.613914 118.181541,93.974236 117.873703,94.515884 
	C117.545982,94.567368 117.422081,94.437531 117.112534,94.112701 
z"/>
<path fill="#000000" opacity="1.000000" stroke="none" 
	d="
M150.890182,87.887955 
	C150.583878,88.306824 150.094925,88.531616 149.605957,88.756409 
	C149.712814,88.392647 149.819656,88.028893 150.133942,87.485832 
	C150.463425,87.435646 150.585464,87.564766 150.890182,87.887955 
z"/>
<path fill="#000000" opacity="1.000000" stroke="none" 
	d="
M158.758636,361.178589 
	C159.244766,361.359375 159.440140,361.674713 159.635498,361.990021 
	C159.246277,361.764374 158.857056,361.538727 158.758636,361.178589 
z"/>
<path fill="#13C508" opacity="1.000000" stroke="none" 
	d="
M353.360718,213.823959 
	C351.813324,211.245834 350.745209,208.780014 349.122559,206.759506 
	C346.853455,203.933975 344.328247,201.971924 340.044403,201.727478 
	C331.167725,201.220932 323.700287,196.995117 316.685547,191.433182 
	C312.362213,188.005234 306.805908,186.132309 300.891937,183.092896 
	C304.003571,182.090790 307.147125,181.069305 310.296692,180.066681 
	C313.350586,179.094543 316.420410,178.171616 319.466339,177.175339 
	C331.883667,173.113724 346.546997,173.350632 353.855194,188.274277 
	C356.268799,193.202988 360.486237,197.213516 363.386902,201.945480 
	C370.163788,213.000732 368.054810,232.105011 354.052612,241.564087 
	C358.791748,231.431259 356.905212,222.728897 353.360718,213.823959 
z"/>
</svg>