<svg version="1.1" id="Layer_1" xmlns="http://www.w3.org/2000/svg" xmlns:xlink="http://www.w3.org/1999/xlink" x="0px" y="0px"
	 width="100%" viewBox="0 0 720 1024" enable-background="new 0 0 720 1024" xml:space="preserve">
<path fill="#000000" opacity="1.000000" stroke="none" 
	d="
M147.293015,412.194763 
	C151.299393,404.847992 157.368393,401.038727 165.083191,399.235474 
	C169.737625,398.147491 169.806091,394.312408 168.883240,390.384949 
	C177.329041,386.004883 186.460739,385.081543 195.379730,383.378632 
	C215.262070,379.582489 235.469528,380.735840 255.480850,379.291534 
	C287.230103,377.000000 319.032776,377.190552 350.744232,375.366852 
	C399.313049,372.573700 447.892761,372.008514 496.501770,371.474213 
	C508.455353,371.342834 520.393555,370.750854 532.337280,371.572723 
	C534.275574,371.706146 536.340820,371.491974 537.997986,372.803528 
	C538.515381,374.606720 536.933167,374.650055 535.899536,375.475037 
	C537.309998,376.102325 539.325195,375.244141 540.010559,377.230103 
	C539.755676,378.897156 538.083496,378.731537 537.004761,379.463959 
	C537.244873,380.622681 539.300537,380.014709 539.121765,381.683990 
	C537.964478,383.420166 535.854980,382.695038 534.232788,383.327301 
	C534.777771,387.608307 531.414612,388.563904 528.359009,389.665100 
	C539.514465,389.665100 550.459229,389.767517 561.401062,389.633484 
	C570.551270,389.521454 579.697021,389.085052 588.846741,388.884003 
	C594.606445,388.757477 601.327332,397.185638 598.645264,402.116455 
	C596.267578,406.487732 597.252441,411.684357 593.835999,415.807526 
	C592.517883,417.398254 591.514893,419.296936 589.750854,420.804108 
	C587.046143,423.114990 583.983765,425.342834 583.489319,429.401611 
	C583.068054,432.859344 579.618530,434.267365 577.479797,435.551086 
	C573.946167,437.672180 572.900513,440.644836 572.203247,443.887634 
	C571.344116,447.883118 569.189270,450.032104 565.277466,450.321259 
	C557.400269,450.903503 551.434692,455.702545 544.616211,459.019745 
	C545.734863,460.060760 547.311890,459.274841 547.798462,460.716675 
	C547.779907,460.875610 547.820679,461.125275 547.727661,461.194061 
	C537.539917,468.729858 527.140137,474.937775 513.613220,475.253571 
	C485.156342,475.917999 456.728180,477.286285 428.241425,477.518280 
	C399.147705,477.755249 370.070496,479.708496 340.979431,480.719299 
	C328.493561,481.153137 315.989197,481.325897 303.496246,481.229095 
	C276.523438,481.020142 249.561539,481.911438 222.587265,481.895264 
	C210.552948,481.888062 198.293167,483.028351 186.489075,481.600952 
	C171.284515,479.762299 156.090424,479.788025 140.911636,478.730957 
	C140.325226,478.690125 139.771133,478.184967 139.122818,477.856018 
	C140.487762,475.411499 143.668549,476.821198 145.883224,473.702789 
	C140.235748,473.702789 135.503464,473.687805 130.771332,473.708588 
	C128.054199,473.720520 125.768959,473.371948 126.825218,468.902863 
	C129.849014,472.557037 132.104782,469.853424 134.894669,469.105804 
	C139.922043,467.758514 145.272720,467.617615 150.391998,466.984711 
	C149.057053,462.940033 144.494568,464.286743 141.383484,461.921112 
	C155.977905,454.989502 171.773209,456.103516 186.546951,452.409973 
	C176.263489,450.938293 166.099823,452.663971 155.242599,451.352356 
	C158.103683,448.119354 162.221344,450.475464 164.962173,448.006592 
	C159.294250,448.006592 153.849030,448.006592 148.403809,448.006592 
	C148.347778,447.572266 148.291748,447.137939 148.235703,446.703613 
	C154.812027,443.597778 164.423050,448.045380 168.440613,438.896576 
	C166.467850,436.651154 163.932251,437.060394 161.028503,437.907990 
	C158.240295,438.721832 155.363068,438.720520 156.489670,434.841339 
	C168.452087,433.660736 179.659332,432.554657 190.778244,431.457306 
	C184.803162,426.673950 184.803162,426.673950 179.669525,428.801086 
	C177.330856,426.198486 174.133728,425.149628 171.052322,425.477875 
	C164.994812,426.123016 159.824768,423.403931 154.295837,422.036957 
	C153.976166,421.957947 153.420288,421.831116 153.403030,421.678162 
	C152.934708,417.528656 147.881561,416.508514 147.293015,412.194763 
z"/>
</svg>